HIERARCHY
ROOT hip
{
	OFFSET 0.000000 0.000000 0.000000 
	CHANNELS 6 Xposition Yposition Zposition Xrotation Zrotation Yrotation
	JOINT abdomen
	{
		OFFSET 0.000000 3.402643 0.000000 
		CHANNELS 3 Xrotation Zrotation Yrotation
		JOINT chest
		{
			OFFSET 0.000000 8.438565 -0.680529 
			CHANNELS 3 Xrotation Zrotation Yrotation
			JOINT neck
			{
				OFFSET 0.000000 10.207942 -0.272212 
				CHANNELS 3 Xrotation Zrotation Yrotation
				JOINT head
				{
					OFFSET 0.000000 3.130431 0.000000 
					CHANNELS 3 Xrotation Zrotation Yrotation
					End Site
					{
						OFFSET 0.000000 3.130435 0.000000 
					}
				}
			}
			JOINT lCollar
			{
				OFFSET 3.470700 6.669187 -0.816635 
				CHANNELS 3 Yrotation Zrotation Xrotation
				JOINT lShldr
				{
					OFFSET 3.198488 0.000000 0.000000 
					CHANNELS 3 Zrotation Yrotation Xrotation
					JOINT lForeArm
					{
						OFFSET 10.139888 0.000000 0.000000 
						CHANNELS 3 Yrotation Zrotation Xrotation
						JOINT lHand
						{
							OFFSET 8.370511 0.000000 0.000000 
							CHANNELS 3 Zrotation Yrotation Xrotation
							End Site
							{
								OFFSET 4.083176 0.000000 0.000000 
							}
						}
					}
				}
			}
			JOINT rCollar
			{
				OFFSET -3.470700 6.669187 -0.816635 
				CHANNELS 3 Yrotation Zrotation Xrotation
				JOINT rShldr
				{
					OFFSET -3.198488 0.000000 0.000000 
					CHANNELS 3 Zrotation Yrotation Xrotation
					JOINT rForeArm
					{
						OFFSET -10.139888 0.000000 0.000000 
						CHANNELS 3 Yrotation Zrotation Xrotation
						JOINT rHand
						{
							OFFSET -8.370511 0.000000 0.000000 
							CHANNELS 3 Zrotation Yrotation Xrotation
							End Site
							{
								OFFSET -4.083176 0.000000 0.000000 
							}
						}
					}
				}
			}
		}
	}
	JOINT lThigh
	{
		OFFSET 5.308129 -1.633274 1.361059 
		CHANNELS 3 Xrotation Zrotation Yrotation
		JOINT lShin
		{
			OFFSET -2.041588 -20.007561 0.000000 
			CHANNELS 3 Xrotation Zrotation Yrotation
			JOINT lFoot
			{
				OFFSET 0.000000 -19.190928 -1.224953 
				CHANNELS 3 Xrotation Yrotation Zrotation
				End Site
				{
					OFFSET 0.000000 -2.449906 4.627600 
				}
			}
		}
	}
	JOINT rThigh
	{
		OFFSET -5.308129 -1.633274 1.361059 
		CHANNELS 3 Xrotation Zrotation Yrotation
		JOINT rShin
		{
			OFFSET 2.041588 -20.007561 0.000000 
			CHANNELS 3 Xrotation Zrotation Yrotation
			JOINT rFoot
			{
				OFFSET 0.000000 -19.190928 -1.224953 
				CHANNELS 3 Xrotation Yrotation Zrotation
				End Site
				{
					OFFSET 0.000000 -2.449906 4.627600 
				}
			}
		}
	}
}
MOTION
Frames: 18
Frame Time: 0.011111
4.510579 51.268562 15.688915 -2.556978 -0.620131 -29.888020 41.738789 -0.496925 -6.434481 -31.040422 6.850799 -1.939001 -13.794477 -6.219872 -5.236078 28.948008 6.670963 -11.137778 2.656661 -4.973740 1.830115 -68.974136 -10.699039 13.060557 -68.907417 9.266122 16.548719 8.524705 12.647240 -32.600964 -4.438679 -1.473473 2.444106 65.229614 15.996349 -27.871391 102.649574 -10.781426 41.683384 -8.534408 -12.637552 69.701027 -3.088845 1.217201 4.302342 32.397564 -5.201800 -5.150761 -28.446127 11.309904 3.406304 -9.823673 -9.237287 -16.832899 49.098167 3.857358 7.073990 -31.670610 -10.025199 -3.914840 
4.463363 51.284813 15.705163 -2.577331 -0.516098 -30.724209 41.436047 -0.399857 -6.748934 -31.099197 6.853879 -2.035881 -13.576336 -6.439794 -5.174225 28.987074 6.843461 -11.021360 2.656661 -4.973740 1.830115 -68.891830 -10.515073 13.165578 -68.791237 9.275806 16.486645 8.524705 12.647240 -32.405647 -4.438679 -1.473473 2.444106 64.590591 15.669723 -25.890991 104.895180 -11.106066 42.734989 -8.534408 -12.637552 66.136581 -3.042442 1.081884 4.274869 32.478081 -5.192124 -5.155121 -28.956514 11.531861 3.666806 -9.599237 -9.423111 -17.265478 48.950478 3.876822 7.060298 -30.962662 -9.939999 -3.625606 
4.417988 51.288177 15.663468 -2.439638 -0.460121 -31.506447 40.979988 0.445577 -8.005848 -31.271116 7.247624 -2.509645 -13.070647 -7.312975 -4.493999 28.936775 7.056549 -9.818048 2.656661 -4.973740 1.830115 -69.930878 -9.957138 11.526266 -68.674797 9.285650 16.434393 8.524705 12.647240 -32.630260 -4.438679 -1.473473 2.444106 63.157818 16.057049 -22.998846 106.820274 -11.303800 43.627792 -8.534408 -12.637552 62.572121 -3.253751 1.216689 4.586322 32.656937 -5.181948 -5.188182 -29.145569 11.792794 3.843092 -9.400374 -9.299262 -17.094090 48.763565 3.896429 7.043317 -31.105730 -8.608376 -3.044867 
4.368933 51.280823 15.630356 -2.305576 -0.718224 -32.520222 41.079021 0.380759 -7.267806 -31.260311 6.507617 -2.256340 -13.221766 -6.596050 -4.994473 28.905107 7.163484 -10.611598 2.656661 -4.973740 1.830115 -68.732994 -10.430281 12.330648 -68.465340 9.307342 16.340706 8.524705 12.647240 -32.884171 -4.438679 -1.473473 2.444106 63.737118 15.663674 -21.336102 109.123177 -11.441336 44.679920 -8.534408 -12.637552 59.408062 -3.330327 1.592055 4.976705 32.895954 -5.170146 -5.205828 -29.414865 12.200285 4.127289 -9.207183 -8.795527 -17.024719 48.409843 3.925806 7.006693 -30.403706 -9.548434 -3.274167 
4.315893 51.270096 15.631277 -2.231280 -1.035659 -33.807213 41.152561 0.376499 -6.712649 -31.357819 6.418937 -2.124365 -13.247005 -6.529591 -5.167345 28.947800 7.225420 -10.934912 2.656661 -4.973740 1.830115 -68.556709 -10.453257 12.549784 -68.506775 9.301058 16.347042 8.524705 12.647240 -33.128311 -4.438679 -1.473473 2.444106 63.607819 15.414511 -18.874945 111.138374 -11.484723 45.587910 -8.534408 -12.637552 55.374859 -3.229285 1.921536 5.316834 33.075691 -5.152697 -5.235977 -30.274029 12.327757 4.494739 -8.904356 -8.258381 -16.758904 48.065247 3.964684 6.974315 -30.219017 -9.752494 -3.308564 
4.250589 51.280209 15.601535 -2.136306 -1.133768 -34.975979 41.257572 0.215527 -6.496409 -31.458393 6.555196 -2.069947 -13.702346 -6.433990 -5.212837 29.218176 7.300612 -11.020475 2.656661 -4.973740 1.830115 -68.443237 -10.670346 12.790257 -68.443230 9.306245 16.319628 8.524705 12.647240 -33.206432 -4.438679 -1.473473 2.444106 63.406963 15.353738 -16.105875 112.885002 -11.464653 46.375046 -8.534408 -12.637552 51.253761 -3.329939 2.099557 5.367918 33.284245 -5.143410 -5.262232 -31.289871 12.440145 4.926563 -8.795590 -7.885304 -16.360758 47.632710 4.003772 6.925099 -30.113840 -9.549162 -3.171779 
4.164436 51.264572 15.643846 -2.363673 -0.708622 -35.953403 40.930714 -0.247430 -7.062536 -31.341221 6.625114 -2.136932 -13.699066 -6.261469 -5.165274 29.335279 7.236795 -10.890582 2.656661 -4.973740 1.830115 -68.336021 -10.711494 12.562293 -68.285095 9.319464 16.243425 8.524705 12.647240 -33.382214 -4.438679 -1.473473 2.444106 63.060467 14.878170 -12.673088 114.459015 -11.399851 47.078339 -8.534408 -12.637552 46.917828 -3.075425 1.562158 5.559561 33.314899 -5.133515 -5.271795 -31.263414 13.033190 5.176064 -8.698298 -8.393322 -16.182997 47.229439 4.042895 6.878164 -30.388783 -8.358177 -2.695337 
4.101892 51.245567 15.617173 -2.432615 -0.480693 -36.785786 40.781799 -0.406349 -7.466676 -31.469872 6.697152 -2.224099 -13.667291 -6.161708 -5.182250 29.491480 7.159048 -10.912889 2.656661 -4.973740 1.830115 -68.200142 -10.792257 12.421294 -68.157799 9.328106 16.180630 8.524705 12.647240 -33.431046 -4.438679 -1.473473 2.444106 62.635868 14.170851 -8.663285 115.811470 -11.320779 47.670883 -8.534408 -12.637552 41.898296 -3.085773 1.386696 5.719906 33.393944 -5.133784 -5.278815 -31.022173 13.568922 5.312785 -8.699639 -8.522573 -15.928185 46.776680 4.081820 6.835953 -31.312723 -7.111013 -2.366053 
4.034748 51.230545 15.597857 -2.622134 -0.263577 -37.641647 40.613865 -0.528679 -8.007804 -31.424496 6.963538 -2.352383 -13.471853 -6.493172 -5.072185 29.288219 7.383878 -10.759563 2.656661 -4.973740 1.830115 -68.418678 -10.915011 12.097798 -68.040642 9.335402 16.128847 8.524705 12.647240 -33.235729 -4.438679 -1.473473 2.444106 62.047794 13.567085 -4.016327 116.807846 -11.239430 48.111725 -8.534408 -12.637552 36.917824 -2.962236 1.158215 5.997579 33.523769 -5.118795 -5.305312 -30.642357 13.866355 5.294920 -8.610473 -8.773995 -15.937785 46.284279 4.130623 6.784911 -31.573130 -6.196081 -1.965601 
3.967604 51.218281 15.568731 -2.533934 -0.392103 -38.611416 40.392815 -0.132126 -8.409569 -31.575586 7.213365 -2.554113 -13.129948 -6.767627 -4.873832 29.213285 7.403676 -10.424481 2.656661 -4.973740 1.830115 -68.894798 -10.661529 11.476107 -67.913048 9.342972 16.066259 8.524705 12.647240 -33.216198 -4.438679 -1.473473 2.444106 61.231869 12.932064 1.261465 117.522301 -11.171267 48.431740 -8.534408 -12.637552 32.620956 -3.100096 1.431937 6.222075 33.891666 -5.099030 -5.342288 -31.955053 13.727526 5.762482 -8.425939 -8.385393 -15.794901 45.674324 4.179383 6.713798 -30.541273 -7.015823 -2.103702 
3.884825 51.204178 15.539298 -2.419513 -0.793449 -39.911678 40.522175 0.107548 -8.393493 -32.023567 7.485305 -2.643160 -12.910371 -6.524705 -4.792628 29.487726 6.925929 -10.296474 2.656661 -4.973740 1.830115 -69.221161 -10.293685 10.968852 -67.828522 9.348305 16.017292 8.524705 12.647240 -33.597054 -4.438679 -1.473473 2.444106 60.344749 11.937292 6.492192 117.964622 -11.126948 48.615700 -8.534408 -12.637552 28.783062 -3.158454 1.909542 6.567174 34.397522 -5.075169 -5.409536 -32.586761 14.264741 6.265801 -8.073510 -7.593261 -15.230603 45.073887 4.228344 6.642730 -29.657415 -8.163470 -2.390962 
3.808484 51.186394 15.507107 -2.292590 -1.123000 -40.981392 40.606678 0.296457 -8.188987 -32.152458 7.523108 -2.637879 -12.720934 -6.355992 -4.801357 29.357246 6.903694 -10.242846 2.656661 -4.973740 1.830115 -69.094765 -10.354793 11.013744 -67.776489 9.354380 16.001808 8.524705 12.647240 -33.528694 -4.438679 -1.473473 2.444106 59.825100 11.222366 11.006716 117.921783 -11.131169 48.603859 -8.534408 -12.637552 25.492046 -3.286513 2.358982 6.982834 35.034477 -5.021080 -5.498462 -32.613049 14.785890 6.504969 -7.622437 -6.965486 -14.994473 44.452534 4.286910 6.582903 -30.034025 -7.521730 -2.218791 
3.743792 51.196819 15.460198 -2.090585 -1.383512 -41.976048 40.564949 0.599185 -7.966849 -31.951571 7.317166 -2.592440 -12.638937 -6.210939 -4.861830 28.938339 7.038028 -10.300322 2.656661 -4.973740 1.830115 -68.700447 -10.763013 11.391900 -67.691734 9.359964 15.962656 8.524705 12.647240 -33.128311 -4.438679 -1.473473 2.444106 59.692390 11.099874 15.391434 117.294701 -11.194870 48.328117 -8.534408 -12.637552 22.972513 -3.588946 2.895315 7.270903 35.689396 -4.987813 -5.556101 -32.335442 14.751693 6.370617 -7.264763 -6.336601 -14.520014 43.890507 4.335704 6.524447 -30.717802 -6.428787 -1.851614 
3.668984 51.221043 15.417887 -1.861159 -1.731975 -43.087429 40.495487 1.195506 -8.238688 -31.886021 7.536693 -2.762293 -12.443653 -6.486136 -4.531341 28.787510 6.946882 -9.739438 2.656661 -4.973740 1.830115 -69.203125 -10.850797 10.540019 -67.607033 9.364677 15.913808 8.524705 12.647240 -33.186901 -4.438679 -1.473473 2.444106 58.698017 11.182125 20.591467 116.386536 -11.272915 47.924320 -8.534408 -12.637552 21.302593 -3.833185 3.480801 7.251737 36.315071 -4.939200 -5.635310 -32.206650 14.681179 6.279820 -6.922990 -5.604348 -13.844415 43.397667 4.374831 6.467406 -30.586580 -6.614999 -1.908296 
3.595096 51.223492 15.377419 -1.856812 -1.875553 -44.363228 40.418159 1.525381 -8.900894 -31.946817 8.160498 -3.040526 -12.131151 -7.115604 -3.991316 28.726652 6.886523 -8.839022 2.656661 -4.973740 1.830115 -70.268860 -10.624245 9.146972 -67.754128 9.353341 15.990598 8.524705 12.647240 -33.274788 -4.438679 -1.473473 2.444106 57.191002 11.299047 25.993027 115.238678 -11.356573 47.422077 -8.534408 -12.637552 19.896341 -3.923881 3.669588 6.947679 36.929302 -4.900298 -5.716255 -32.874683 14.271767 6.382180 -6.688406 -5.233059 -13.073042 42.984016 4.403970 6.413722 -29.981760 -6.998518 -1.941253 
3.546347 51.216747 15.314873 -1.804031 -1.877253 -45.370296 40.476242 1.355220 -8.797838 -31.988197 8.236023 -3.000450 -12.252306 -6.919813 -4.139207 28.842312 6.873139 -9.105661 2.656661 -4.973740 1.830115 -70.117775 -10.910583 9.300256 -68.062935 9.336204 16.140112 8.524705 12.647240 -32.347057 -4.438679 -1.473473 2.444106 56.834381 10.958423 30.010384 113.862556 -11.428392 46.816277 -8.534408 -12.637552 17.347515 -4.199334 3.906342 6.934722 37.543205 -4.857738 -5.805405 -31.757551 14.953340 6.216673 -6.659383 -4.989381 -12.423595 42.658611 4.433277 6.367567 -29.896051 -6.507862 -1.673294 
3.497293 51.200806 15.270417 -1.726082 -1.926009 -46.326885 40.728638 1.019946 -8.510980 -32.423252 8.241985 -2.909731 -12.451272 -6.323129 -4.376096 29.299217 6.658101 -9.494419 2.656661 -4.973740 1.830115 -69.663933 -10.812303 10.563939 -67.341858 9.379841 15.787499 8.524705 12.647240 -34.974010 -4.438679 -1.473473 2.444106 56.778538 10.139433 33.696266 112.298935 -11.477444 46.110332 -8.534408 -12.637552 14.525248 -4.459249 4.243627 7.139524 38.217987 -4.796980 -5.883878 -31.290602 15.053841 6.056776 -6.586308 -4.671716 -11.644430 42.381180 4.462790 6.354047 -29.969412 -5.968112 -1.416691 
3.442413 51.188541 15.240984 -1.758023 -2.039691 -47.398403 40.827610 0.747931 -8.012194 -32.138481 7.812181 -2.687765 -12.616893 -5.980466 -4.646007 29.216444 6.898226 -9.886215 2.656661 -4.973740 1.830115 -68.814514 -11.542186 10.705249 -68.009529 9.339018 16.115616 8.524705 12.647240 -32.903698 -4.438679 -1.473473 2.444106 57.104408 9.845944 36.655266 110.522049 -11.475952 45.316906 -8.534408 -12.637552 12.347515 -4.627601 4.519806 7.240426 39.058342 -4.744576 -5.988748 -30.642509 15.358203 5.905960 -6.399965 -4.397809 -10.784547 42.056408 4.482252 6.304092 -29.879059 -5.856725 -1.342214 
